<svg xmlns="http://www.w3.org/2000/svg" width="1024" height="1024" fill="none" viewBox="0 0 1024 1024">
  <g class="background">
    <rect width="1024" height="1024" fill="#fff" rx="512"/>
    <path fill="#000" d="m212.397 230 56.996 173.959h2.3L328.689 230h33.397l-73.694 213.59h-35.698L179 230h33.397Zm227.658 216.823c-15.132 0-28.164-3.372-39.097-10.116-10.866-6.814-19.265-16.374-25.198-28.68-5.866-12.376-8.799-26.873-8.799-43.49 0-16.409 2.933-30.871 8.799-43.386 5.933-12.515 14.199-22.283 24.798-29.306 10.666-7.022 23.132-10.533 37.398-10.533a72.486 72.486 0 0 1 25.198 4.484c8.132 2.99 15.432 7.683 21.898 14.08 6.466 6.396 11.566 14.705 15.299 24.926 3.733 10.151 5.599 22.492 5.599 37.023v11.055H396.784l.05-23.361h79.819c0-8.204-1.6-15.47-4.8-21.797-3.2-6.397-7.699-11.438-13.499-15.123-5.733-3.685-12.466-5.527-20.198-5.527-8.4 0-15.733 2.155-21.999 6.466-6.199 4.241-10.999 9.804-14.399 16.687-3.333 6.814-4.999 14.218-4.999 22.214v18.251c0 10.707 1.8 19.816 5.399 27.325 3.667 7.509 8.766 13.245 15.299 17.208 6.533 3.893 14.166 5.84 22.898 5.84 5.667 0 10.833-.834 15.499-2.503 4.667-1.738 8.7-4.31 12.099-7.717 3.4-3.407 6-7.614 7.8-12.62l28.298 5.319c-2.267 8.691-6.333 16.305-12.199 22.84-5.8 6.466-13.099 11.507-21.899 15.123-8.733 3.545-18.698 5.318-29.898 5.318ZM603.518 507c-12.199 0-22.698-1.669-31.497-5.006-8.733-3.337-15.866-7.752-21.399-13.245-5.533-5.493-9.666-11.507-12.399-18.043l25.698-11.055c1.8 3.06 4.2 6.293 7.2 9.7 3.066 3.476 7.199 6.431 12.399 8.864 5.266 2.434 12.032 3.651 20.298 3.651 11.333 0 20.699-2.886 28.098-8.657 7.399-5.701 11.099-14.809 11.099-27.324v-31.496h-1.9c-1.8 3.406-4.399 7.196-7.799 11.367-3.333 4.172-7.933 7.788-13.799 10.847-5.866 3.059-13.499 4.589-22.898 4.589-12.133 0-23.065-2.955-32.798-8.865-9.666-5.98-17.332-14.775-22.998-26.386-5.6-11.681-8.4-26.038-8.4-43.073 0-17.034 2.767-31.635 8.3-43.802 5.599-12.168 13.266-21.485 22.998-27.951 9.733-6.535 20.765-9.803 33.098-9.803 9.532 0 17.232 1.668 23.098 5.006 5.866 3.268 10.432 7.092 13.699 11.472 3.333 4.38 5.899 8.239 7.699 11.576h2.2v-25.968h29.298v163.738c0 13.767-3.066 25.065-9.199 33.895-6.133 8.83-14.433 15.366-24.898 19.607-10.4 4.241-22.132 6.362-35.198 6.362Zm-.3-91.673c8.6 0 15.866-2.086 21.799-6.257 5.999-4.242 10.532-10.29 13.599-18.147 3.133-7.926 4.699-17.417 4.699-28.472 0-10.777-1.533-20.267-4.599-28.472-3.067-8.204-7.567-14.601-13.499-19.189-5.933-4.659-13.266-6.988-21.999-6.988-8.999 0-16.499 2.433-22.498 7.3-6 4.798-10.533 11.334-13.599 19.607-3 8.274-4.5 17.521-4.5 27.742 0 10.499 1.533 19.711 4.6 27.637 3.066 7.927 7.599 14.115 13.599 18.565 6.066 4.449 13.532 6.674 22.398 6.674Zm175.887 31.496c-15.132 0-28.165-3.372-39.097-10.116-10.866-6.814-19.265-16.374-25.198-28.68-5.866-12.376-8.8-26.873-8.8-43.49 0-16.409 2.934-30.871 8.8-43.386 5.933-12.515 14.199-22.283 24.798-29.306 10.666-7.022 23.132-10.533 37.397-10.533a72.481 72.481 0 0 1 25.198 4.484c8.133 2.99 15.432 7.683 21.899 14.08 6.466 6.396 11.565 14.705 15.298 24.926 3.734 10.151 5.6 22.492 5.6 37.023v11.055H735.834l.05-23.361h79.818c0-8.204-1.6-15.47-4.799-21.797-3.2-6.397-7.7-11.438-13.499-15.123-5.733-3.685-12.466-5.527-20.199-5.527-8.399 0-15.732 2.155-21.998 6.466-6.2 4.241-10.999 9.804-14.399 16.687-3.333 6.814-5 14.218-5 22.214v18.251c0 10.707 1.8 19.816 5.4 27.325 3.666 7.509 8.766 13.245 15.299 17.208 6.533 3.893 14.165 5.84 22.898 5.84 5.666 0 10.832-.834 15.499-2.503 4.666-1.738 8.699-4.31 12.099-7.717 3.4-3.407 5.999-7.614 7.799-12.62l28.298 5.319c-2.266 8.691-6.333 16.305-12.199 22.84-5.799 6.466-13.099 11.507-21.898 15.123-8.733 3.545-18.699 5.318-29.898 5.318Z" class="logo-text"/>
    <path fill="#25A749" d="M736.247 596.734a9.889 9.889 0 0 1 2.031 3.135c.484 1.181.751 2.456.786 3.751a10.737 10.737 0 0 1-.579 3.796 10.068 10.068 0 0 1-1.856 3.263c-38.876 45.391-62.529 90.936-74.585 144.533 17.936 7.231 37.676 7.872 56.935 1.627 25.552-8.285 47.815-27.581 64.377-55.785 14.786-25.177 18.637-50.341 22.358-74.686 4.697-30.713 9.136-59.724 35.787-87.41 2.949-3.082 4.131-7.28 3.173-11.294-1.121-4.586-4.417-7.662-9.865-9.136-12.751-3.452-48.488-1.233-86.214 8.477-60.611 15.59-91.281 40.471-106.342 58.602-19.443 23.426-30.21 54.015-30.21 84.414a125.87 125.87 0 0 0 1.144 17.119c3.542 25.714 15.284 47.118 32.368 59.182 13.048-55.168 37.861-102.298 77.997-149.187a9.02 9.02 0 0 1 2.856-2.236 8.285 8.285 0 0 1 3.416-.862 8.24 8.24 0 0 1 3.456.645 8.88 8.88 0 0 1 2.967 2.052Zm-79.695 188.691c1.451-10.375 3.273-20.424 5.476-30.207a85.065 85.065 0 0 1-14.394-7.478c-.7-.45-1.395-.931-2.079-1.418a391.77 391.77 0 0 0-6.726 36.107 10.798 10.798 0 0 0 .089 3.898c.265 1.281.76 2.49 1.455 3.557a9.39 9.39 0 0 0 2.595 2.657 8.479 8.479 0 0 0 3.328 1.344c1.18.2 2.384.139 3.542-.18a8.646 8.646 0 0 0 3.202-1.676 9.629 9.629 0 0 0 2.361-2.909 10.582 10.582 0 0 0 1.151-3.695ZM179 576.018v-40.015h171.407v40.015h-63.895v189.538h-43.616V576.018H179Zm222.157 192.788c-9.987 0-18.887-1.905-26.7-5.716-7.812-3.886-13.995-9.602-18.547-17.149-4.483-7.622-6.725-17.112-6.725-28.47 0-9.565 1.596-17.598 4.789-24.099 3.193-6.501 7.541-11.731 13.044-15.692 5.503-3.96 11.754-6.949 18.751-8.967 7.066-2.017 14.471-3.437 22.216-4.259 9.104-1.046 16.441-2.018 22.012-2.914 5.571-.972 9.613-2.391 12.127-4.259 2.513-1.869 3.77-4.633 3.77-8.295v-.672c0-7.099-2.038-12.591-6.114-16.477-4.009-3.886-9.715-5.829-17.121-5.829-7.812 0-14.029 1.906-18.649 5.717-4.619 3.736-7.677 8.444-9.171 14.123l-40.151-3.587c2.038-10.461 6.046-19.503 12.025-27.125 5.978-7.697 13.689-13.6 23.132-17.71 9.512-4.184 20.518-6.276 33.018-6.276 8.696 0 17.019 1.12 24.967 3.362 8.017 2.242 15.117 5.717 21.299 10.424 6.25 4.708 11.176 10.76 14.776 18.158 3.601 7.323 5.402 16.103 5.402 26.34v116.122h-41.171v-23.874h-1.223c-2.513 5.38-5.876 10.125-10.089 14.235-4.212 4.035-9.273 7.21-15.184 9.527-5.91 2.242-12.738 3.362-20.483 3.362Zm12.433-32.953c6.386 0 12.025-1.382 16.916-4.147 4.892-2.84 8.73-6.651 11.516-11.433 2.785-4.782 4.178-10.2 4.178-16.252V685.75c-1.359.972-3.227 1.869-5.605 2.691-2.31.747-4.925 1.457-7.847 2.129a359.472 359.472 0 0 1-8.764 1.681c-2.921.449-5.571.86-7.949 1.233-5.095.822-9.545 2.13-13.349 3.923-3.805 1.794-6.76 4.222-8.866 7.286-2.106 2.989-3.159 6.725-3.159 11.209 0 6.501 2.14 11.47 6.42 14.907 4.348 3.363 9.851 5.044 16.509 5.044Zm152.809-199.85v229.553h-43.412V536.003h43.412Z" class="tal"/>
  </g>
</svg>
