<svg xmlns="http://www.w3.org/2000/svg" width="2080" height="484" fill="none" viewBox="0 0 2080 484">
  <g class="Property 1=Default">
    <path fill="#25A749" d="M1786.58 189.939a13.461 13.461 0 0 1 3.14 4.332 13.493 13.493 0 0 1 1.22 5.183 13.44 13.44 0 0 1-.9 5.246 13.488 13.488 0 0 1-2.87 4.51c-60.09 62.727-96.65 125.666-115.29 199.732 27.73 9.993 58.24 10.879 88.01 2.25 39.5-11.45 73.91-38.115 99.51-77.091 22.86-34.792 28.81-69.568 34.56-103.21 7.27-42.443 14.13-82.534 55.32-120.794 4.56-4.259 6.39-10.061 4.91-15.607-1.73-6.338-6.83-10.59-15.25-12.625-19.71-4.771-74.95-1.704-133.27 11.714-93.69 21.545-141.1 55.928-164.38 80.983-30.06 32.373-46.7 74.645-46.7 116.654-.01 7.918.58 15.826 1.77 23.657 5.47 35.534 23.62 65.113 50.03 81.785 20.17-76.239 58.53-141.368 120.57-206.165a13.867 13.867 0 0 1 4.41-3.09 14.077 14.077 0 0 1 10.63-.3c1.7.639 3.26 1.603 4.58 2.836Zm-123.19 260.756c2.24-14.338 5.06-28.224 8.47-41.744a137.39 137.39 0 0 1-22.25-10.334 80.05 80.05 0 0 1-3.22-1.959 488.265 488.265 0 0 0-10.39 49.897c-.32 1.787-.28 3.618.13 5.387.41 1.769 1.18 3.44 2.25 4.914a13.861 13.861 0 0 0 4.01 3.673 14.062 14.062 0 0 0 15.57-.707 13.642 13.642 0 0 0 3.65-4.021 13.52 13.52 0 0 0 1.78-5.106ZM1277.12 65.056V0h311.72v65.056h-116.2v308.149h-79.32V65.055h-116.2ZM2080 0v373.205h-78.95V0H2080Z" class="tal"/>
    <path fill="#000" d="m61.899 0 105.635 303.958h4.263L277.432 0h61.899L202.746 373.205h-66.161L0 0h61.899Zm421.939 378.854c-28.045 0-52.2-5.892-72.462-17.676-20.139-11.906-35.706-28.61-46.702-50.113-10.872-21.625-16.309-46.955-16.309-75.99 0-28.67 5.437-53.939 16.309-75.807 10.996-21.867 26.316-38.936 45.961-51.206 19.768-12.27 42.872-18.405 69.312-18.405 16.061 0 31.628 2.612 46.702 7.836 15.073 5.223 28.601 13.424 40.586 24.6 11.984 11.177 21.436 25.695 28.355 43.553 6.918 17.737 10.378 39.301 10.378 64.691v19.317H403.64l.092-40.82h147.936c0-14.335-2.966-27.03-8.896-38.085-5.931-11.177-14.27-19.985-25.019-26.424-10.625-6.438-23.104-9.658-37.436-9.658-15.567 0-29.158 3.766-40.771 11.298-11.491 7.411-20.386 17.13-26.687 29.157-6.178 11.906-9.267 24.844-9.267 38.815v31.89c0 18.709 3.336 34.623 10.008 47.744 6.795 13.12 16.247 23.143 28.355 30.068 12.108 6.803 26.254 10.204 42.439 10.204 10.502 0 20.077-1.457 28.726-4.373 8.648-3.037 16.123-7.532 22.424-13.485 6.301-5.953 11.12-13.303 14.456-22.05l52.447 9.294c-4.201 15.186-11.738 28.488-22.61 39.908-10.749 11.298-24.278 20.106-40.586 26.423-16.185 6.196-34.656 9.294-55.413 9.294ZM786.799 484c-22.61 0-42.069-2.916-58.377-8.747-16.185-5.831-29.405-13.546-39.66-23.143-10.255-9.597-17.915-20.106-22.98-31.526l47.628-19.316c3.336 5.345 7.784 10.995 13.344 16.947 5.683 6.075 13.343 11.238 22.98 15.49 9.761 4.252 22.301 6.378 37.621 6.378 21.004 0 38.363-5.042 52.077-15.125 13.714-9.962 20.571-25.877 20.571-47.744v-55.033h-3.521c-3.336 5.953-8.155 12.574-14.456 19.863-6.177 7.289-14.702 13.606-25.575 18.952-10.872 5.345-25.019 8.018-42.439 8.018-22.486 0-42.749-5.164-60.787-15.49-17.915-10.448-32.123-25.816-42.625-46.104-10.378-20.409-15.567-45.496-15.567-75.26 0-29.764 5.127-55.276 15.382-76.537 10.378-21.26 24.586-37.539 42.625-48.837 18.038-11.42 38.486-17.13 61.342-17.13 17.668 0 31.938 2.916 42.811 8.748 10.872 5.709 19.335 12.391 25.389 20.045 6.178 7.653 10.934 14.396 14.27 20.227h4.077V93.301h54.301v286.1c0 24.054-5.684 43.795-17.05 59.224-11.367 15.429-26.749 26.848-46.146 34.259C832.76 480.295 811.015 484 786.799 484Zm-.556-160.179c15.938 0 29.405-3.645 40.401-10.934 11.12-7.411 19.521-17.98 25.204-31.708 5.807-13.849 8.711-30.432 8.711-49.748 0-18.831-2.842-35.413-8.525-49.749-5.684-14.335-14.023-25.512-25.019-33.53-10.996-8.139-24.587-12.209-40.772-12.209-16.679 0-30.579 4.252-41.698 12.756-11.12 8.382-19.521 19.802-25.204 34.259-5.56 14.457-8.34 30.614-8.34 48.473 0 18.344 2.842 34.441 8.525 48.29 5.683 13.85 14.085 24.662 25.204 32.437 11.243 7.775 25.081 11.663 41.513 11.663Zm325.987 55.033c-28.05 0-52.2-5.892-72.46-17.676-20.14-11.906-35.71-28.61-46.704-50.113-10.872-21.625-16.308-46.955-16.308-75.99 0-28.67 5.436-53.939 16.308-75.807 10.994-21.867 26.314-38.936 45.964-51.206 19.77-12.27 42.87-18.405 69.31-18.405 16.06 0 31.63 2.612 46.7 7.836 15.07 5.223 28.6 13.424 40.59 24.6 11.98 11.177 21.43 25.695 28.35 43.553 6.92 17.737 10.38 39.301 10.38 64.691v19.317h-202.33l.09-40.82h147.94c0-14.335-2.97-27.03-8.9-38.085-5.93-11.177-14.27-19.985-25.01-26.424-10.63-6.438-23.11-9.658-37.44-9.658-15.57 0-29.16 3.766-40.77 11.298-11.49 7.411-20.39 17.13-26.69 29.157-6.18 11.906-9.27 24.844-9.27 38.815v31.89c0 18.709 3.34 34.623 10.01 47.744 6.8 13.12 16.25 23.143 28.36 30.068 12.11 6.803 26.25 10.204 42.44 10.204 10.5 0 20.07-1.457 28.72-4.373 8.65-3.037 16.13-7.532 22.43-13.485 6.3-5.953 11.12-13.303 14.45-22.05l52.45 9.294c-4.2 15.186-11.74 28.488-22.61 39.908-10.75 11.298-24.28 20.106-40.59 26.423-16.18 6.196-34.65 9.294-55.41 9.294Z" class="logo-text"/>
  </g>
</svg>
