<svg xmlns="http://www.w3.org/2000/svg" width="985" height="828" fill="none" viewBox="0 0 985 828">
  <g class="Property 1=Square">
    <path fill="#000" d="m50.294 6 84.124 256.229h3.395L221.937 6h49.294L162.46 320.602h-52.689L1 6h49.294Zm336.018 319.364c-22.335 0-41.571-4.966-57.707-14.9-16.038-10.036-28.435-24.118-37.192-42.244-8.658-18.229-12.987-39.581-12.987-64.057 0-24.169 4.329-45.47 12.987-63.904 8.757-18.434 20.958-32.822 36.602-43.166 15.742-10.343 34.142-15.515 55.197-15.515 12.791 0 25.188 2.202 37.192 6.606 12.004 4.403 22.778 11.316 32.321 20.738 9.544 9.421 17.071 21.659 22.581 36.714 5.51 14.951 8.265 33.129 8.265 54.533v16.283H322.444l.074-34.41h117.81c0-12.084-2.361-22.786-7.084-32.105-4.723-9.422-11.364-16.847-19.924-22.274-8.462-5.428-18.399-8.142-29.813-8.142-12.397 0-23.22 3.175-32.469 9.524-9.15 6.247-16.234 14.44-21.252 24.579-4.92 10.036-7.379 20.942-7.379 32.719v26.883c0 15.771 2.656 29.187 7.969 40.247 5.412 11.06 12.939 19.509 22.581 25.346 9.642 5.735 20.908 8.603 33.797 8.603 8.364 0 15.989-1.229 22.876-3.687 6.888-2.56 12.84-6.349 17.858-11.368 5.018-5.018 8.855-11.213 11.512-18.587l41.767 7.834c-3.345 12.802-9.347 24.016-18.006 33.642-8.56 9.524-19.334 16.949-32.321 22.274-12.889 5.223-27.599 7.834-44.128 7.834ZM627.579 414c-18.006 0-33.503-2.458-46.49-7.373-12.889-4.916-23.417-11.419-31.584-19.51-8.166-8.09-14.266-16.948-18.3-26.575l37.929-16.283c2.657 4.506 6.199 9.268 10.627 14.286 4.526 5.121 10.626 9.473 18.3 13.057 7.773 3.585 17.76 5.377 29.96 5.377 16.727 0 30.551-4.25 41.472-12.75 10.922-8.398 16.382-21.813 16.382-40.247V277.59h-2.804c-2.656 5.018-6.494 10.6-11.512 16.744-4.919 6.145-11.708 11.47-20.367 15.976-8.658 4.506-19.924 6.759-33.797 6.759-17.907 0-34.043-4.352-48.408-13.057-14.267-8.807-25.582-21.762-33.945-38.864-8.265-17.205-12.397-38.353-12.397-63.443 0-25.091 4.083-46.597 12.249-64.518 8.265-17.922 19.58-31.645 33.945-41.169 14.365-9.626 30.649-14.44 48.851-14.44 14.07 0 25.434 2.458 34.093 7.374 8.658 4.813 15.398 10.446 20.219 16.897 4.92 6.452 8.708 12.136 11.364 17.052h3.247v-38.25h43.243v241.174c0 20.277-4.526 36.919-13.578 49.925s-21.302 22.633-36.749 28.88c-15.349 6.247-32.666 9.37-51.95 9.37Zm-.443-135.027c12.692 0 23.417-3.072 32.174-9.217 8.855-6.247 15.545-15.157 20.071-26.729 4.625-11.675 6.937-25.653 6.937-41.937 0-15.873-2.263-29.852-6.789-41.936-4.526-12.085-11.167-21.506-19.924-28.265-8.757-6.862-19.58-10.293-32.469-10.293-13.283 0-24.352 3.585-33.207 10.753-8.855 7.067-15.546 16.693-20.072 28.88-4.427 12.187-6.641 25.807-6.641 40.861 0 15.464 2.263 29.034 6.789 40.708 4.526 11.675 11.216 20.789 20.071 27.344 8.954 6.554 19.974 9.831 33.06 9.831Zm259.605 46.391c-22.335 0-41.571-4.966-57.707-14.9-16.037-10.036-28.435-24.118-37.192-42.244-8.658-18.229-12.987-39.581-12.987-64.057 0-24.169 4.329-45.47 12.987-63.904 8.757-18.434 20.958-32.822 36.602-43.166 15.742-10.343 34.142-15.515 55.197-15.515 12.791 0 25.188 2.202 37.192 6.606 12.004 4.403 22.778 11.316 32.321 20.738 9.544 9.421 17.071 21.659 22.581 36.714 5.51 14.951 8.265 33.129 8.265 54.533v16.283H822.873l.074-34.41h117.81c0-12.084-2.361-22.786-7.084-32.105-4.723-9.422-11.364-16.847-19.924-22.274-8.462-5.428-18.399-8.142-29.813-8.142-12.397 0-23.22 3.175-32.469 9.524-9.15 6.247-16.234 14.44-21.252 24.579-4.92 10.036-7.379 20.942-7.379 32.719v26.883c0 15.771 2.656 29.187 7.969 40.247 5.412 11.06 12.939 19.509 22.581 25.346 9.642 5.735 20.908 8.603 33.797 8.603 8.364 0 15.989-1.229 22.876-3.687 6.888-2.56 12.84-6.349 17.858-11.368 5.018-5.018 8.855-11.213 11.512-18.587l41.767 7.834c-3.345 12.802-9.347 24.016-18.006 33.642-8.56 9.524-19.333 16.949-32.321 22.274-12.889 5.223-27.599 7.834-44.128 7.834Z" class="logo-text"/>
    <path fill="#25A749" d="M823.484 531.442a14.597 14.597 0 0 1 2.998 4.617 15.727 15.727 0 0 1 1.159 5.525 15.813 15.813 0 0 1-.855 5.592 14.805 14.805 0 0 1-2.74 4.806c-57.379 66.857-92.29 133.942-110.084 212.886 26.472 10.651 55.609 11.595 84.034 2.397 37.715-12.204 70.574-40.625 95.02-82.167 21.823-37.084 27.506-74.149 32.999-110.007 6.933-45.238 13.485-87.969 52.821-128.748 4.352-4.54 6.097-10.724 4.683-16.635-1.655-6.756-6.519-11.287-14.56-13.457-18.821-5.085-71.567-1.816-127.251 12.485-89.46 22.964-134.728 59.612-156.957 86.317-28.698 34.504-44.59 79.56-44.59 124.335a185.08 185.08 0 0 0 1.688 25.216c5.228 37.873 22.56 69.4 47.775 87.17 19.258-81.259 55.882-150.677 115.122-219.741a13.334 13.334 0 0 1 4.214-3.294 12.258 12.258 0 0 1 5.043-1.269 12.178 12.178 0 0 1 5.101.949 13.143 13.143 0 0 1 4.38 3.023ZM705.855 809.37c2.142-15.282 4.831-30.083 8.082-44.493a125.57 125.57 0 0 1-21.244-11.015 78.24 78.24 0 0 1-3.069-2.088 576.545 576.545 0 0 0-9.928 53.183 15.924 15.924 0 0 0 .131 5.742 15.278 15.278 0 0 0 2.148 5.238 13.834 13.834 0 0 0 3.83 3.914 12.539 12.539 0 0 0 4.913 1.98c1.741.294 3.519.204 5.228-.265a12.771 12.771 0 0 0 4.725-2.469 14.157 14.157 0 0 0 3.485-4.285 15.564 15.564 0 0 0 1.699-5.442ZM1 500.929V441.99h252.993v58.939h-94.308v279.175H95.308V500.929H1Zm327.898 283.963c-14.74 0-27.876-2.807-39.407-8.42-11.532-5.723-20.657-14.143-27.375-25.259-6.619-11.227-9.928-25.205-9.928-41.935 0-14.088 2.357-25.919 7.07-35.495 4.713-9.575 11.13-17.28 19.252-23.113 8.123-5.834 17.348-10.236 27.676-13.208 10.429-2.971 21.359-5.063 32.79-6.273 13.437-1.541 24.267-2.972 32.489-4.293 8.223-1.431 14.189-3.522 17.899-6.273 3.71-2.752 5.565-6.824 5.565-12.217v-.991c0-10.456-3.008-18.546-9.024-24.269-5.917-5.723-14.34-8.585-25.27-8.585-11.531 0-20.706 2.807-27.525 8.42-6.819 5.503-11.331 12.437-13.537 20.802l-59.262-5.283c3.008-15.409 8.924-28.727 17.748-39.953 8.824-11.337 20.206-20.032 34.144-26.085 14.038-6.164 30.283-9.245 48.733-9.245 12.835 0 25.119 1.651 36.851 4.952 11.833 3.302 22.311 8.42 31.436 15.354 9.226 6.934 16.496 15.849 21.81 26.746 5.315 10.786 7.972 23.718 7.972 38.797v171.038h-60.767v-35.165h-1.805c-3.71 7.924-8.673 14.913-14.89 20.967-6.217 5.943-13.688 10.621-22.412 14.033-8.724 3.302-18.801 4.953-30.233 4.953Zm18.351-48.538c9.426 0 17.748-2.036 24.968-6.108 7.22-4.183 12.886-9.796 16.997-16.84 4.111-7.044 6.167-15.024 6.167-23.939v-26.91c-2.006 1.43-4.763 2.751-8.273 3.962-3.409 1.101-7.27 2.146-11.582 3.137-4.312.88-8.623 1.706-12.935 2.476-4.312.66-8.223 1.266-11.732 1.816-7.521 1.211-14.089 3.137-19.704 5.778-5.616 2.642-9.978 6.219-13.086 10.732-3.109 4.402-4.663 9.905-4.663 16.509 0 9.576 3.159 16.895 9.476 21.958 6.418 4.953 14.54 7.429 24.367 7.429ZM572.792 441.99v338.114h-64.076V441.99h64.076Z" class="tal"/>
  </g>
</svg>
