<svg xmlns="http://www.w3.org/2000/svg" width="159" height="37" fill="none" viewBox="0 0 159 37">
  <path fill="#25A749" d="M136.571 14.52a1.025 1.025 0 0 1 .264 1.128 1.04 1.04 0 0 1-.219.345c-4.594 4.795-7.389 9.607-8.814 15.27 2.12.763 4.452.83 6.728.171 3.019-.875 5.65-2.914 7.607-5.893 1.747-2.66 2.202-5.318 2.642-7.89.555-3.245 1.08-6.31 4.229-9.234.348-.326.488-.77.375-1.194-.133-.484-.522-.81-1.166-.965-1.507-.364-5.729-.13-10.187.896-7.162 1.647-10.787 4.275-12.566 6.19-2.298 2.475-3.57 5.707-3.57 8.918-.001.606.044 1.21.135 1.809.419 2.716 1.806 4.977 3.825 6.252 1.542-5.828 4.474-10.807 9.216-15.76a1.07 1.07 0 0 1 1.501-.043Zm-9.418 19.934c.172-1.096.387-2.158.647-3.191a10.53 10.53 0 0 1-1.7-.79 6.206 6.206 0 0 1-.246-.15 37.608 37.608 0 0 0-.795 3.814 1.02 1.02 0 0 0 .183.788 1.05 1.05 0 0 0 .7.423 1.077 1.077 0 0 0 .796-.196 1.041 1.041 0 0 0 .415-.698Z"/>
  <path fill="#000" d="m4.732 0 8.075 23.236h.325L21.209 0h4.731L15.5 28.53h-5.06L0 0h4.732Zm32.254 28.962c-2.144 0-3.99-.45-5.54-1.351-1.539-.91-2.729-2.187-3.57-3.831-.83-1.653-1.246-3.59-1.246-5.81 0-2.191.415-4.123 1.247-5.794.84-1.672 2.011-2.977 3.513-3.915 1.511-.938 3.277-1.407 5.298-1.407 1.228 0 2.418.2 3.57.599a8.672 8.672 0 0 1 3.103 1.88c.916.855 1.638 1.965 2.167 3.33.53 1.356.794 3.004.794 4.945v1.477H30.855l.007-3.12h11.309c0-1.096-.227-2.067-.68-2.912a5.091 5.091 0 0 0-1.913-2.02c-.812-.492-1.766-.738-2.861-.738-1.19 0-2.23.288-3.117.864a5.83 5.83 0 0 0-2.04 2.228c-.472.91-.708 1.9-.708 2.968v2.438c0 1.43.255 2.646.764 3.65.52 1.002 1.242 1.769 2.168 2.298.926.52 2.007.78 3.244.78.803 0 1.535-.111 2.196-.334a4.756 4.756 0 0 0 1.714-1.031 4.472 4.472 0 0 0 1.105-1.686l4.01.71a7.108 7.108 0 0 1-1.729 3.052c-.822.863-1.856 1.537-3.102 2.02-1.238.473-2.65.71-4.236.71ZM60.145 37c-1.729 0-3.216-.223-4.463-.669-1.237-.446-2.248-1.035-3.031-1.769-.784-.734-1.37-1.537-1.757-2.41l3.64-1.477c.256.41.596.84 1.02 1.296.435.464 1.02.86 1.757 1.184.746.325 1.705.488 2.876.488 1.606 0 2.933-.386 3.981-1.157 1.048-.761 1.573-1.978 1.573-3.65V24.63h-.27c-.255.455-.623.96-1.105 1.518-.472.557-1.123 1.04-1.955 1.449-.83.408-1.912.613-3.244.613-1.719 0-3.267-.395-4.646-1.184-1.37-.8-2.456-1.974-3.259-3.525-.793-1.56-1.19-3.478-1.19-5.753 0-2.276.392-4.226 1.176-5.851.793-1.625 1.88-2.87 3.258-3.734 1.38-.873 2.942-1.31 4.69-1.31 1.35 0 2.441.224 3.272.67.831.436 1.478.947 1.94 1.532.473.585.837 1.1 1.092 1.546h.311V7.133h4.151v21.87c0 1.84-.434 3.349-1.303 4.528-.869 1.18-2.045 2.053-3.528 2.62-1.473.566-3.135.849-4.986.849Zm-.043-12.245c1.219 0 2.248-.279 3.089-.836.85-.567 1.492-1.374 1.926-2.424.444-1.059.666-2.326.666-3.803 0-1.44-.217-2.707-.652-3.803-.434-1.096-1.072-1.95-1.912-2.563-.84-.623-1.88-.934-3.117-.934-1.275 0-2.337.325-3.187.976-.85.64-1.492 1.513-1.927 2.618-.425 1.106-.637 2.34-.637 3.706 0 1.402.217 2.633.651 3.692.435 1.058 1.077 1.885 1.927 2.48.86.594 1.917.89 3.173.89Zm24.92 4.207c-2.144 0-3.99-.45-5.54-1.351-1.54-.91-2.73-2.187-3.57-3.831-.83-1.653-1.246-3.59-1.246-5.81 0-2.191.415-4.123 1.246-5.794.84-1.672 2.012-2.977 3.514-3.915 1.51-.938 3.277-1.407 5.298-1.407 1.228 0 2.418.2 3.57.599a8.672 8.672 0 0 1 3.103 1.88c.916.855 1.638 1.965 2.167 3.33.529 1.356.793 3.004.793 4.945v1.477H78.891l.007-3.12h11.309c0-1.096-.227-2.067-.68-2.912a5.091 5.091 0 0 0-1.913-2.02c-.812-.492-1.766-.738-2.862-.738-1.19 0-2.229.288-3.116.864a5.832 5.832 0 0 0-2.04 2.228 6.34 6.34 0 0 0-.709 2.968v2.438c0 1.43.255 2.646.765 3.65.52 1.002 1.242 1.769 2.168 2.298.925.52 2.007.78 3.244.78.803 0 1.535-.111 2.196-.334a4.757 4.757 0 0 0 1.714-1.031 4.472 4.472 0 0 0 1.105-1.686l4.01.71a7.108 7.108 0 0 1-1.73 3.052c-.82.863-1.855 1.537-3.102 2.02-1.237.473-2.649.71-4.236.71Z"/>
  <path fill="#25A749" d="M97.626 4.973V0h23.829v4.973h-8.883V28.53h-6.063V4.973h-8.883ZM159 0v28.53h-6.035V0H159Z"/>
</svg>
