<svg xmlns="http://www.w3.org/2000/svg" width="100" height="81" fill="none" viewBox="0 0 100 81">
  <path fill="#25A749" d="M81.898 53.24c.124.111.224.245.294.393a1.193 1.193 0 0 1-.239 1.357c-5.612 5.698-9.028 11.414-10.768 18.141 2.59.908 5.44.989 8.22.205 3.69-1.04 6.904-3.462 9.295-7.002 2.135-3.16 2.69-6.319 3.228-9.375.678-3.854 1.32-7.496 5.167-10.97.426-.388.597-.915.458-1.418-.162-.576-.637-.962-1.424-1.147-1.841-.433-7-.155-12.448 1.064-8.751 1.957-13.18 5.08-15.354 7.355-2.807 2.94-4.362 6.78-4.362 10.596 0 .719.054 1.437.165 2.148.512 3.228 2.207 5.914 4.674 7.429 1.884-6.925 5.466-12.84 11.261-18.726a1.343 1.343 0 0 1 1.833-.05ZM70.392 76.924c.21-1.303.472-2.564.79-3.792a13.038 13.038 0 0 1-2.078-.938 7.71 7.71 0 0 1-.3-.178 43.5 43.5 0 0 0-.971 4.532 1.186 1.186 0 0 0 .223.935c.1.134.228.248.374.334a1.334 1.334 0 0 0 .992.146 1.32 1.32 0 0 0 .463-.21c.137-.1.253-.223.34-.366.088-.142.144-.3.167-.463Z"/>
  <path fill="#000" d="m5.914 6 8.387 23.466h.338L23.026 6h4.915L17.097 34.813h-5.253L1 6h4.914Zm33.5 29.249c-2.227 0-4.145-.455-5.754-1.365-1.598-.92-2.834-2.209-3.707-3.869-.863-1.67-1.295-3.625-1.295-5.867 0-2.213.431-4.164 1.295-5.852.873-1.688 2.089-3.006 3.649-3.953 1.57-.948 3.403-1.421 5.503-1.421 1.275 0 2.51.201 3.707.605a9.058 9.058 0 0 1 3.223 1.899c.951.863 1.702 1.984 2.25 3.362.55 1.37.825 3.035.825 4.995v1.491H33.046l.008-3.151h11.745c0-1.107-.236-2.087-.706-2.94a5.204 5.204 0 0 0-1.987-2.04c-.843-.498-1.834-.746-2.972-.746-1.236 0-2.315.29-3.237.872a5.954 5.954 0 0 0-2.119 2.251 6.267 6.267 0 0 0-.735 2.997v2.462c0 1.444.264 2.673.794 3.686.54 1.012 1.29 1.786 2.251 2.32.962.526 2.085.789 3.37.789.834 0 1.594-.113 2.28-.338a4.97 4.97 0 0 0 1.78-1.041c.5-.46.883-1.027 1.148-1.702l4.164.717a7.13 7.13 0 0 1-1.795 3.081c-.853.873-1.927 1.553-3.222 2.04-1.285.479-2.752.718-4.4.718Zm24.053 8.117c-1.795 0-3.34-.225-4.635-.675-1.285-.45-2.335-1.046-3.149-1.787-.814-.74-1.422-1.552-1.824-2.434l3.781-1.49c.265.412.618.848 1.06 1.308.45.469 1.059.867 1.824 1.195.775.329 1.77.493 2.987.493 1.667 0 3.045-.39 4.134-1.168 1.09-.769 1.633-1.998 1.633-3.686v-4.249H69c-.265.46-.647.971-1.148 1.534-.49.563-1.167 1.05-2.03 1.463-.863.413-1.986.619-3.37.619-1.785 0-3.394-.399-4.826-1.196-1.422-.806-2.55-1.993-3.384-3.56-.824-1.575-1.236-3.512-1.236-5.81 0-2.297.407-4.267 1.221-5.908.824-1.642 1.953-2.899 3.385-3.77 1.432-.882 3.055-1.323 4.87-1.323 1.402 0 2.535.225 3.399.675.863.44 1.535.957 2.015 1.548.49.59.868 1.111 1.133 1.561h.324v-3.503h4.311v22.088c0 1.857-.451 3.381-1.353 4.572-.903 1.191-2.124 2.073-3.664 2.645-1.53.572-3.257.858-5.18.858ZM63.423 31c1.265 0 2.334-.281 3.207-.844.883-.572 1.55-1.388 2.001-2.448.461-1.07.692-2.35.692-3.84 0-1.455-.226-2.735-.677-3.842-.451-1.106-1.114-1.97-1.987-2.588-.873-.629-1.952-.943-3.237-.943-1.324 0-2.427.328-3.31.985-.883.647-1.55 1.529-2.001 2.645-.441 1.116-.662 2.363-.662 3.742 0 1.416.225 2.66.677 3.728.45 1.07 1.118 1.904 2 2.505.893.6 1.992.9 3.297.9Zm25.881 4.249c-2.227 0-4.145-.455-5.753-1.365-1.6-.92-2.835-2.209-3.708-3.869-.863-1.67-1.295-3.625-1.295-5.867 0-2.213.432-4.164 1.295-5.852.873-1.688 2.09-3.006 3.649-3.953 1.57-.948 3.404-1.421 5.503-1.421 1.275 0 2.51.201 3.708.605a9.058 9.058 0 0 1 3.222 1.899c.951.863 1.702 1.984 2.251 3.362.55 1.37.824 3.035.824 4.995v1.491H82.936l.008-3.151h11.745c0-1.107-.235-2.087-.706-2.94a5.205 5.205 0 0 0-1.987-2.04c-.843-.498-1.834-.746-2.972-.746-1.236 0-2.315.29-3.237.872a5.954 5.954 0 0 0-2.119 2.251 6.267 6.267 0 0 0-.735 2.997v2.462c0 1.444.265 2.673.794 3.686.54 1.012 1.29 1.786 2.251 2.32.962.526 2.085.789 3.37.789.834 0 1.594-.113 2.28-.338a4.969 4.969 0 0 0 1.78-1.041 4.494 4.494 0 0 0 1.148-1.702l4.165.717a7.13 7.13 0 0 1-1.796 3.081c-.853.873-1.927 1.553-3.222 2.04-1.285.479-2.751.718-4.4.718Z"/>
  <path fill="#25A749" d="M1.441 50.64v-5.023H26.19v5.023h-9.226v23.79h-6.297V50.64H1.44Zm32.076 24.198c-1.442 0-2.727-.24-3.855-.718-1.128-.487-2.02-1.205-2.678-2.152-.647-.957-.97-2.148-.97-3.574 0-1.2.23-2.208.69-3.024a5.451 5.451 0 0 1 1.884-1.97 9.357 9.357 0 0 1 2.707-1.125c1.02-.254 2.09-.432 3.208-.535a84.607 84.607 0 0 0 3.178-.366c.804-.122 1.388-.3 1.751-.535.363-.234.544-.581.544-1.04v-.085c0-.891-.294-1.58-.883-2.068-.578-.488-1.402-.732-2.471-.732-1.128 0-2.026.24-2.693.718-.667.469-1.108 1.06-1.324 1.773l-5.797-.45c.294-1.314.873-2.449 1.736-3.405.863-.966 1.976-1.707 3.34-2.223 1.373-.525 2.962-.788 4.767-.788 1.256 0 2.457.14 3.605.422 1.157.282 2.182.718 3.075 1.309a6.465 6.465 0 0 1 2.133 2.279c.52.919.78 2.02.78 3.306V74.43H40.3v-2.997h-.176a6.143 6.143 0 0 1-1.457 1.787c-.608.506-1.34.905-2.193 1.196-.853.281-1.839.422-2.957.422Zm1.795-4.136c.922 0 1.736-.174 2.443-.52.706-.357 1.26-.836 1.662-1.436.402-.6.603-1.28.603-2.04v-2.293a3.44 3.44 0 0 1-.809.338c-.333.093-.71.182-1.133.267-.422.075-.843.145-1.265.21l-1.148.156c-.735.103-1.378.267-1.927.492-.55.225-.976.53-1.28.915-.304.375-.456.844-.456 1.406 0 .816.309 1.44.926 1.872.628.422 1.423.633 2.384.633Zm22.063-25.085V74.43h-6.268V45.617h6.268Z"/>
</svg>
